<svg xmlns="http://www.w3.org/2000/svg" xmlns:xlink="http://www.w3.org/1999/xlink" width="300" zoomAndPan="magnify" viewBox="0 0 224.87999 74.999997" height="100" preserveAspectRatio="xMidYMid meet" version="1.0"><defs><g/><clipPath id="aaf9ffe828"><path d="M 0 0.0195312 L 224.761719 0.0195312 L 224.761719 74.980469 L 0 74.980469 Z M 0 0.0195312 " clip-rule="nonzero"/></clipPath><clipPath id="6d45e3b101"><path d="M 8.972656 19.097656 L 44.542969 19.097656 L 44.542969 54.804688 L 8.972656 54.804688 Z M 8.972656 19.097656 " clip-rule="nonzero"/></clipPath><clipPath id="5e52d81e22"><path d="M 17.753906 54.71875 L 35.761719 54.71875 L 44.542969 19.097656 L 8.972656 19.097656 Z M 17.753906 54.71875 " clip-rule="nonzero"/></clipPath><clipPath id="4be0669589"><path d="M 1.90625 19.097656 L 36.574219 19.097656 L 36.574219 54.710938 L 1.90625 54.710938 Z M 1.90625 19.097656 " clip-rule="nonzero"/></clipPath><clipPath id="a474a8eb98"><path d="M 6.308594 19.097656 L 32.171875 19.097656 C 33.339844 19.097656 34.457031 19.558594 35.285156 20.382812 C 36.109375 21.210938 36.574219 22.328125 36.574219 23.496094 L 36.574219 50.277344 C 36.574219 51.445312 36.109375 52.566406 35.285156 53.390625 C 34.457031 54.214844 33.339844 54.679688 32.171875 54.679688 L 6.308594 54.679688 C 5.140625 54.679688 4.019531 54.214844 3.195312 53.390625 C 2.371094 52.566406 1.90625 51.445312 1.90625 50.277344 L 1.90625 23.496094 C 1.90625 22.328125 2.371094 21.210938 3.195312 20.382812 C 4.019531 19.558594 5.140625 19.097656 6.308594 19.097656 Z M 6.308594 19.097656 " clip-rule="nonzero"/></clipPath><clipPath id="1fd205d809"><path d="M 44.234375 15.128906 L 79.804688 15.128906 L 79.804688 50.835938 L 44.234375 50.835938 Z M 44.234375 15.128906 " clip-rule="nonzero"/></clipPath><clipPath id="d17494acaf"><path d="M 71.023438 15.214844 L 53.015625 15.214844 L 44.234375 50.835938 L 79.804688 50.835938 Z M 71.023438 15.214844 " clip-rule="nonzero"/></clipPath><clipPath id="847a8bfdd1"><path d="M 53.382812 15.253906 L 90.355469 15.253906 L 90.355469 50.839844 L 53.382812 50.839844 Z M 53.382812 15.253906 " clip-rule="nonzero"/></clipPath><clipPath id="4d340837bc"><path d="M 85.953125 50.839844 L 57.796875 50.839844 C 56.628906 50.839844 55.511719 50.375 54.683594 49.550781 C 53.859375 48.726562 53.394531 47.605469 53.394531 46.4375 L 53.394531 19.65625 C 53.394531 18.488281 53.859375 17.371094 54.683594 16.542969 C 55.511719 15.71875 56.628906 15.253906 57.796875 15.253906 L 85.953125 15.253906 C 87.121094 15.253906 88.242188 15.71875 89.066406 16.542969 C 89.890625 17.371094 90.355469 18.488281 90.355469 19.65625 L 90.355469 46.4375 C 90.355469 47.605469 89.890625 48.726562 89.066406 49.550781 C 88.242188 50.375 87.121094 50.839844 85.953125 50.839844 Z M 85.953125 50.839844 " clip-rule="nonzero"/></clipPath></defs><g clip-path="url(#aaf9ffe828)"><path fill="#ffffff" d="M 0 0.0195312 L 224.878906 0.0195312 L 224.878906 74.980469 L 0 74.980469 Z M 0 0.0195312 " fill-opacity="1" fill-rule="nonzero"/><path fill="#ffffff" d="M 0 0.0195312 L 224.878906 0.0195312 L 224.878906 74.980469 L 0 74.980469 Z M 0 0.0195312 " fill-opacity="1" fill-rule="nonzero"/></g><g fill="#004338" fill-opacity="1"><g transform="translate(97.300177, 33.259113)"><g><path d="M 12.078125 -13.75 L 5.5625 -13.75 L 5.5625 -10.171875 L 11.140625 -10.171875 L 11.140625 -6.875 L 5.5625 -6.875 L 5.5625 -3.296875 L 12.078125 -3.296875 L 12.078125 0 L 1.8125 0 L 1.8125 -17.046875 L 12.078125 -17.046875 Z M 12.078125 -13.75 "/></g></g></g><g fill="#004338" fill-opacity="1"><g transform="translate(111.540774, 33.259113)"><g><path d="M 9.75 -19.46875 L 13.359375 -19.46875 L 13.359375 0 L 9.75 0.03125 L 9.75 -1 C 9.332031 -0.613281 8.851562 -0.3125 8.3125 -0.09375 C 7.769531 0.125 7.164062 0.234375 6.5 0.234375 C 5.457031 0.234375 4.507812 -0.03125 3.65625 -0.5625 C 2.8125 -1.09375 2.132812 -1.800781 1.625 -2.6875 C 1.125 -3.582031 0.875 -4.582031 0.875 -5.6875 C 0.875 -6.78125 1.125 -7.769531 1.625 -8.65625 C 2.132812 -9.550781 2.8125 -10.265625 3.65625 -10.796875 C 4.507812 -11.328125 5.457031 -11.59375 6.5 -11.59375 C 7.164062 -11.59375 7.769531 -11.484375 8.3125 -11.265625 C 8.851562 -11.046875 9.332031 -10.75 9.75 -10.375 Z M 7.21875 -2.984375 C 7.957031 -2.984375 8.59375 -3.242188 9.125 -3.765625 C 9.65625 -4.285156 9.921875 -4.925781 9.921875 -5.6875 C 9.921875 -6.445312 9.65625 -7.085938 9.125 -7.609375 C 8.59375 -8.128906 7.957031 -8.390625 7.21875 -8.390625 C 6.457031 -8.390625 5.816406 -8.128906 5.296875 -7.609375 C 4.773438 -7.085938 4.515625 -6.445312 4.515625 -5.6875 C 4.515625 -4.925781 4.773438 -4.285156 5.296875 -3.765625 C 5.816406 -3.242188 6.457031 -2.984375 7.21875 -2.984375 Z M 7.21875 -2.984375 "/></g></g></g><g fill="#004338" fill-opacity="1"><g transform="translate(127.57136, 33.259113)"><g><path d="M 12.1875 -17.046875 L 12.1875 -13.71875 L 7.90625 -13.71875 L 7.90625 0 L 4.171875 0 L 4.171875 -13.71875 L -0.140625 -13.71875 L -0.140625 -17.046875 Z M 12.1875 -17.046875 "/></g></g></g><g fill="#004338" fill-opacity="1"><g transform="translate(140.618633, 33.259113)"><g><path d="M 14.34375 -2.953125 L 14.859375 -2.953125 L 14.859375 0 C 14.722656 0.0507812 14.578125 0.101562 14.421875 0.15625 C 14.265625 0.207031 14.085938 0.234375 13.890625 0.234375 C 13.140625 0.234375 12.457031 0.0546875 11.84375 -0.296875 C 11.238281 -0.648438 10.757812 -1.117188 10.40625 -1.703125 C 9.945312 -1.117188 9.390625 -0.648438 8.734375 -0.296875 C 8.085938 0.0546875 7.34375 0.234375 6.5 0.234375 C 5.457031 0.234375 4.507812 -0.03125 3.65625 -0.5625 C 2.8125 -1.09375 2.132812 -1.800781 1.625 -2.6875 C 1.125 -3.582031 0.875 -4.582031 0.875 -5.6875 C 0.875 -6.78125 1.125 -7.769531 1.625 -8.65625 C 2.132812 -9.550781 2.8125 -10.265625 3.65625 -10.796875 C 4.507812 -11.328125 5.457031 -11.59375 6.5 -11.59375 C 7.164062 -11.59375 7.769531 -11.484375 8.3125 -11.265625 C 8.851562 -11.046875 9.332031 -10.75 9.75 -10.375 L 9.75 -11.375 L 13.359375 -11.375 L 13.359375 -4.0625 C 13.359375 -3.59375 13.460938 -3.289062 13.671875 -3.15625 C 13.878906 -3.019531 14.101562 -2.953125 14.34375 -2.953125 Z M 7.21875 -2.984375 C 7.957031 -2.984375 8.59375 -3.242188 9.125 -3.765625 C 9.65625 -4.285156 9.921875 -4.925781 9.921875 -5.6875 C 9.921875 -6.445312 9.65625 -7.085938 9.125 -7.609375 C 8.59375 -8.128906 7.957031 -8.390625 7.21875 -8.390625 C 6.457031 -8.390625 5.816406 -8.128906 5.296875 -7.609375 C 4.773438 -7.085938 4.515625 -6.445312 4.515625 -5.6875 C 4.515625 -4.925781 4.773438 -4.285156 5.296875 -3.765625 C 5.816406 -3.242188 6.457031 -2.984375 7.21875 -2.984375 Z M 7.21875 -2.984375 "/></g></g></g><g fill="#004338" fill-opacity="1"><g transform="translate(156.904935, 33.259113)"><g><path d="M 9.265625 -11.375 L 13.015625 -11.375 L 5.734375 6.828125 L 1.9375 6.828125 L 4.609375 0.25 L -0.140625 -11.375 L 3.640625 -11.375 L 6.484375 -3.84375 Z M 9.265625 -11.375 "/></g></g></g><g fill="#004338" fill-opacity="1"><g transform="translate(170.804578, 33.259113)"><g><path d="M 9.265625 -11.375 L 13.015625 -11.375 L 5.734375 6.828125 L 1.9375 6.828125 L 4.609375 0.25 L -0.140625 -11.375 L 3.640625 -11.375 L 6.484375 -3.84375 Z M 9.265625 -11.375 "/></g></g></g><g fill="#004338" fill-opacity="1"><g transform="translate(184.704221, 33.259113)"><g><path d="M 14.34375 -2.953125 L 14.859375 -2.953125 L 14.859375 0 C 14.722656 0.0507812 14.578125 0.101562 14.421875 0.15625 C 14.265625 0.207031 14.085938 0.234375 13.890625 0.234375 C 13.140625 0.234375 12.457031 0.0546875 11.84375 -0.296875 C 11.238281 -0.648438 10.757812 -1.117188 10.40625 -1.703125 C 9.945312 -1.117188 9.390625 -0.648438 8.734375 -0.296875 C 8.085938 0.0546875 7.34375 0.234375 6.5 0.234375 C 5.457031 0.234375 4.507812 -0.03125 3.65625 -0.5625 C 2.8125 -1.09375 2.132812 -1.800781 1.625 -2.6875 C 1.125 -3.582031 0.875 -4.582031 0.875 -5.6875 C 0.875 -6.78125 1.125 -7.769531 1.625 -8.65625 C 2.132812 -9.550781 2.8125 -10.265625 3.65625 -10.796875 C 4.507812 -11.328125 5.457031 -11.59375 6.5 -11.59375 C 7.164062 -11.59375 7.769531 -11.484375 8.3125 -11.265625 C 8.851562 -11.046875 9.332031 -10.75 9.75 -10.375 L 9.75 -11.375 L 13.359375 -11.375 L 13.359375 -4.0625 C 13.359375 -3.59375 13.460938 -3.289062 13.671875 -3.15625 C 13.878906 -3.019531 14.101562 -2.953125 14.34375 -2.953125 Z M 7.21875 -2.984375 C 7.957031 -2.984375 8.59375 -3.242188 9.125 -3.765625 C 9.65625 -4.285156 9.921875 -4.925781 9.921875 -5.6875 C 9.921875 -6.445312 9.65625 -7.085938 9.125 -7.609375 C 8.59375 -8.128906 7.957031 -8.390625 7.21875 -8.390625 C 6.457031 -8.390625 5.816406 -8.128906 5.296875 -7.609375 C 4.773438 -7.085938 4.515625 -6.445312 4.515625 -5.6875 C 4.515625 -4.925781 4.773438 -4.285156 5.296875 -3.765625 C 5.816406 -3.242188 6.457031 -2.984375 7.21875 -2.984375 Z M 7.21875 -2.984375 "/></g></g></g><g fill="#004338" fill-opacity="1"><g transform="translate(200.990522, 33.259113)"><g><path d="M 8.5 -11.59375 C 8.664062 -11.59375 8.828125 -11.582031 8.984375 -11.5625 C 9.148438 -11.539062 9.300781 -11.515625 9.4375 -11.484375 L 9.4375 -8.265625 C 9.300781 -8.304688 9.144531 -8.335938 8.96875 -8.359375 C 8.789062 -8.378906 8.597656 -8.390625 8.390625 -8.390625 C 7.492188 -8.390625 6.753906 -8.128906 6.171875 -7.609375 C 5.597656 -7.097656 5.3125 -6.367188 5.3125 -5.421875 L 5.3125 0 L 1.671875 0 L 1.671875 -11.375 L 5.3125 -11.375 L 5.3125 -9.796875 C 5.6875 -10.347656 6.144531 -10.785156 6.6875 -11.109375 C 7.226562 -11.429688 7.832031 -11.59375 8.5 -11.59375 Z M 8.5 -11.59375 "/></g></g></g><g fill="#004338" fill-opacity="1"><g transform="translate(211.367013, 33.259113)"><g><path d="M 3.546875 -13.265625 C 3.015625 -13.265625 2.550781 -13.460938 2.15625 -13.859375 C 1.757812 -14.265625 1.5625 -14.734375 1.5625 -15.265625 C 1.5625 -15.804688 1.757812 -16.269531 2.15625 -16.65625 C 2.550781 -17.050781 3.015625 -17.25 3.546875 -17.25 C 4.097656 -17.25 4.566406 -17.050781 4.953125 -16.65625 C 5.347656 -16.269531 5.546875 -15.804688 5.546875 -15.265625 C 5.546875 -14.734375 5.347656 -14.265625 4.953125 -13.859375 C 4.566406 -13.460938 4.097656 -13.265625 3.546875 -13.265625 Z M 1.734375 0 L 1.734375 -11.375 L 5.34375 -11.375 L 5.34375 0 Z M 1.734375 0 "/></g></g></g><g fill="#004338" fill-opacity="1"><g transform="translate(108.851443, 47.635191)"><g><path d="M 3.453125 -3.9375 L 1.59375 -3.9375 L 1.59375 -2.90625 L 3.1875 -2.90625 L 3.1875 -1.96875 L 1.59375 -1.96875 L 1.59375 -0.9375 L 3.453125 -0.9375 L 3.453125 0 L 0.515625 0 L 0.515625 -4.875 L 3.453125 -4.875 Z M 3.453125 -3.9375 "/></g></g></g><g fill="#004338" fill-opacity="1"><g transform="translate(114.809825, 47.635191)"><g><path d="M 3.40625 -4.875 L 4.609375 -4.875 L 2.859375 0 L 1.65625 0 L -0.109375 -4.875 L 1.09375 -4.875 L 2.25 -1.390625 Z M 3.40625 -4.875 "/></g></g></g><g fill="#004338" fill-opacity="1"><g transform="translate(121.48246, 47.635191)"><g><path d="M 3.453125 -3.9375 L 1.59375 -3.9375 L 1.59375 -2.90625 L 3.1875 -2.90625 L 3.1875 -1.96875 L 1.59375 -1.96875 L 1.59375 -0.9375 L 3.453125 -0.9375 L 3.453125 0 L 0.515625 0 L 0.515625 -4.875 L 3.453125 -4.875 Z M 3.453125 -3.9375 "/></g></g></g><g fill="#004338" fill-opacity="1"><g transform="translate(127.440842, 47.635191)"><g><path d="M 3.015625 -2 L 4.390625 0 L 3.1875 0 L 1.984375 -1.890625 L 1.546875 -1.890625 L 1.546875 0 L 0.484375 0 L 0.484375 -4.875 L 2.546875 -4.875 C 2.828125 -4.875 3.078125 -4.804688 3.296875 -4.671875 C 3.515625 -4.546875 3.6875 -4.367188 3.8125 -4.140625 C 3.9375 -3.910156 4 -3.65625 4 -3.375 C 4 -3.050781 3.90625 -2.765625 3.71875 -2.515625 C 3.539062 -2.265625 3.304688 -2.09375 3.015625 -2 Z M 2.390625 -2.765625 C 2.566406 -2.765625 2.707031 -2.816406 2.8125 -2.921875 C 2.925781 -3.035156 2.984375 -3.175781 2.984375 -3.34375 C 2.984375 -3.507812 2.925781 -3.644531 2.8125 -3.75 C 2.707031 -3.863281 2.566406 -3.921875 2.390625 -3.921875 L 1.546875 -3.921875 L 1.546875 -2.765625 Z M 2.390625 -2.765625 "/></g></g></g><g fill="#004338" fill-opacity="1"><g transform="translate(133.959263, 47.635191)"><g><path d="M 4.375 -4.875 L 2.6875 -2.296875 L 2.6875 0 L 1.609375 0 L 1.609375 -2.296875 L -0.109375 -4.875 L 1.109375 -4.875 L 2.140625 -3.21875 L 3.1875 -4.875 Z M 4.375 -4.875 "/></g></g></g><g fill="#004338" fill-opacity="1"><g transform="translate(140.41276, 47.635191)"><g><path d="M 2.796875 0.0625 C 2.453125 0.0625 2.128906 0 1.828125 -0.125 C 1.523438 -0.257812 1.257812 -0.441406 1.03125 -0.671875 C 0.800781 -0.898438 0.617188 -1.164062 0.484375 -1.46875 C 0.359375 -1.769531 0.296875 -2.09375 0.296875 -2.4375 C 0.296875 -2.78125 0.359375 -3.101562 0.484375 -3.40625 C 0.617188 -3.707031 0.800781 -3.972656 1.03125 -4.203125 C 1.257812 -4.429688 1.523438 -4.609375 1.828125 -4.734375 C 2.128906 -4.867188 2.453125 -4.9375 2.796875 -4.9375 C 3.148438 -4.9375 3.476562 -4.867188 3.78125 -4.734375 C 4.082031 -4.609375 4.347656 -4.429688 4.578125 -4.203125 C 4.804688 -3.972656 4.984375 -3.707031 5.109375 -3.40625 C 5.242188 -3.101562 5.3125 -2.78125 5.3125 -2.4375 C 5.3125 -2.09375 5.242188 -1.769531 5.109375 -1.46875 C 4.984375 -1.164062 4.804688 -0.898438 4.578125 -0.671875 C 4.347656 -0.441406 4.082031 -0.257812 3.78125 -0.125 C 3.476562 0 3.148438 0.0625 2.796875 0.0625 Z M 2.796875 -0.984375 C 3.078125 -0.984375 3.328125 -1.046875 3.546875 -1.171875 C 3.765625 -1.296875 3.9375 -1.46875 4.0625 -1.6875 C 4.1875 -1.90625 4.25 -2.15625 4.25 -2.4375 C 4.25 -2.71875 4.1875 -2.96875 4.0625 -3.1875 C 3.9375 -3.40625 3.765625 -3.578125 3.546875 -3.703125 C 3.328125 -3.828125 3.078125 -3.890625 2.796875 -3.890625 C 2.523438 -3.890625 2.28125 -3.828125 2.0625 -3.703125 C 1.84375 -3.578125 1.671875 -3.40625 1.546875 -3.1875 C 1.421875 -2.96875 1.359375 -2.71875 1.359375 -2.4375 C 1.359375 -2.15625 1.421875 -1.90625 1.546875 -1.6875 C 1.671875 -1.46875 1.84375 -1.296875 2.0625 -1.171875 C 2.28125 -1.046875 2.523438 -0.984375 2.796875 -0.984375 Z M 2.796875 -0.984375 "/></g></g></g><g fill="#004338" fill-opacity="1"><g transform="translate(148.197367, 47.635191)"><g><path d="M 3.984375 -4.875 L 5.046875 -4.875 L 5.046875 0 L 3.9375 0 L 1.546875 -3.234375 L 1.546875 0 L 0.484375 0 L 0.484375 -4.875 L 1.578125 -4.875 L 3.984375 -1.65625 Z M 3.984375 -4.875 "/></g></g></g><g fill="#004338" fill-opacity="1"><g transform="translate(155.900812, 47.635191)"><g><path d="M 3.453125 -3.9375 L 1.59375 -3.9375 L 1.59375 -2.90625 L 3.1875 -2.90625 L 3.1875 -1.96875 L 1.59375 -1.96875 L 1.59375 -0.9375 L 3.453125 -0.9375 L 3.453125 0 L 0.515625 0 L 0.515625 -4.875 L 3.453125 -4.875 Z M 3.453125 -3.9375 "/></g></g></g><g fill="#004338" fill-opacity="1"><g transform="translate(161.859195, 47.635191)"><g><path d="M 0.859375 -3.015625 L 0.3125 -3.015625 L 0.875 -4.984375 L 1.734375 -4.984375 Z M 0.859375 -3.015625 "/></g></g></g><g fill="#004338" fill-opacity="1"><g transform="translate(165.561179, 47.635191)"><g><path d="M 1.984375 0.0625 C 1.554688 0.0625 1.175781 -0.0390625 0.84375 -0.25 C 0.519531 -0.457031 0.28125 -0.71875 0.125 -1.03125 L 1.015625 -1.578125 C 1.109375 -1.390625 1.238281 -1.234375 1.40625 -1.109375 C 1.570312 -0.992188 1.765625 -0.9375 1.984375 -0.9375 C 2.179688 -0.9375 2.332031 -0.976562 2.4375 -1.0625 C 2.539062 -1.144531 2.59375 -1.253906 2.59375 -1.390625 C 2.59375 -1.523438 2.535156 -1.632812 2.421875 -1.71875 C 2.316406 -1.8125 2.175781 -1.890625 2 -1.953125 C 1.832031 -2.015625 1.648438 -2.078125 1.453125 -2.140625 C 1.265625 -2.210938 1.085938 -2.300781 0.921875 -2.40625 C 0.753906 -2.507812 0.613281 -2.648438 0.5 -2.828125 C 0.394531 -3.003906 0.34375 -3.226562 0.34375 -3.5 C 0.34375 -3.820312 0.414062 -4.085938 0.5625 -4.296875 C 0.71875 -4.515625 0.914062 -4.675781 1.15625 -4.78125 C 1.394531 -4.882812 1.644531 -4.9375 1.90625 -4.9375 C 2.207031 -4.9375 2.488281 -4.875 2.75 -4.75 C 3.007812 -4.625 3.226562 -4.457031 3.40625 -4.25 L 2.6875 -3.5625 C 2.570312 -3.695312 2.445312 -3.800781 2.3125 -3.875 C 2.175781 -3.945312 2.035156 -3.984375 1.890625 -3.984375 C 1.765625 -3.984375 1.65625 -3.953125 1.5625 -3.890625 C 1.46875 -3.828125 1.421875 -3.722656 1.421875 -3.578125 C 1.421875 -3.441406 1.472656 -3.332031 1.578125 -3.25 C 1.691406 -3.164062 1.832031 -3.09375 2 -3.03125 C 2.175781 -2.976562 2.359375 -2.914062 2.546875 -2.84375 C 2.734375 -2.769531 2.910156 -2.675781 3.078125 -2.5625 C 3.253906 -2.445312 3.394531 -2.296875 3.5 -2.109375 C 3.613281 -1.929688 3.671875 -1.6875 3.671875 -1.375 C 3.671875 -1.070312 3.59375 -0.8125 3.4375 -0.59375 C 3.28125 -0.382812 3.070312 -0.222656 2.8125 -0.109375 C 2.5625 0.00390625 2.285156 0.0625 1.984375 0.0625 Z M 1.984375 0.0625 "/></g></g></g><g fill="#004338" fill-opacity="1"><g transform="translate(171.584493, 47.635191)"><g/></g></g><g fill="#004338" fill-opacity="1"><g transform="translate(175.708541, 47.635191)"><g><path d="M 3.484375 -4.875 L 3.484375 -3.921875 L 2.265625 -3.921875 L 2.265625 0 L 1.1875 0 L 1.1875 -3.921875 L -0.046875 -3.921875 L -0.046875 -4.875 Z M 3.484375 -4.875 "/></g></g></g><g fill="#004338" fill-opacity="1"><g transform="translate(181.326033, 47.635191)"><g><path d="M 3.453125 -3.9375 L 1.59375 -3.9375 L 1.59375 -2.90625 L 3.1875 -2.90625 L 3.1875 -1.96875 L 1.59375 -1.96875 L 1.59375 -0.9375 L 3.453125 -0.9375 L 3.453125 0 L 0.515625 0 L 0.515625 -4.875 L 3.453125 -4.875 Z M 3.453125 -3.9375 "/></g></g></g><g fill="#004338" fill-opacity="1"><g transform="translate(187.284416, 47.635191)"><g><path d="M 2.796875 0.0625 C 2.453125 0.0625 2.128906 0 1.828125 -0.125 C 1.523438 -0.257812 1.257812 -0.441406 1.03125 -0.671875 C 0.800781 -0.898438 0.617188 -1.164062 0.484375 -1.46875 C 0.359375 -1.769531 0.296875 -2.09375 0.296875 -2.4375 C 0.296875 -2.78125 0.359375 -3.101562 0.484375 -3.40625 C 0.617188 -3.707031 0.800781 -3.972656 1.03125 -4.203125 C 1.257812 -4.429688 1.523438 -4.609375 1.828125 -4.734375 C 2.128906 -4.867188 2.453125 -4.9375 2.796875 -4.9375 C 3.285156 -4.9375 3.726562 -4.8125 4.125 -4.5625 C 4.519531 -4.320312 4.816406 -4 5.015625 -3.59375 L 4.09375 -3.125 C 3.976562 -3.351562 3.804688 -3.535156 3.578125 -3.671875 C 3.347656 -3.816406 3.085938 -3.890625 2.796875 -3.890625 C 2.523438 -3.890625 2.28125 -3.828125 2.0625 -3.703125 C 1.84375 -3.578125 1.671875 -3.40625 1.546875 -3.1875 C 1.421875 -2.96875 1.359375 -2.71875 1.359375 -2.4375 C 1.359375 -2.15625 1.421875 -1.90625 1.546875 -1.6875 C 1.671875 -1.46875 1.84375 -1.296875 2.0625 -1.171875 C 2.28125 -1.046875 2.523438 -0.984375 2.796875 -0.984375 C 3.085938 -0.984375 3.347656 -1.050781 3.578125 -1.1875 C 3.804688 -1.332031 3.976562 -1.519531 4.09375 -1.75 L 5.015625 -1.28125 C 4.816406 -0.882812 4.519531 -0.5625 4.125 -0.3125 C 3.726562 -0.0625 3.285156 0.0625 2.796875 0.0625 Z M 2.796875 0.0625 "/></g></g></g><g fill="#004338" fill-opacity="1"><g transform="translate(194.687543, 47.635191)"><g><path d="M 3.53125 -4.875 L 4.59375 -4.875 L 4.59375 0 L 3.53125 0 L 3.53125 -1.96875 L 1.546875 -1.96875 L 1.546875 0 L 0.484375 0 L 0.484375 -4.875 L 1.546875 -4.875 L 1.546875 -2.921875 L 3.53125 -2.921875 Z M 3.53125 -4.875 "/></g></g></g><g fill="#004338" fill-opacity="1"><g transform="translate(201.944574, 47.635191)"><g><path d="M 4.375 -4.875 L 2.6875 -2.296875 L 2.6875 0 L 1.609375 0 L 1.609375 -2.296875 L -0.109375 -4.875 L 1.109375 -4.875 L 2.140625 -3.21875 L 3.1875 -4.875 Z M 4.375 -4.875 "/></g></g></g><g clip-path="url(#6d45e3b101)"><g clip-path="url(#5e52d81e22)"><path fill="#004338" d="M 8.972656 19.097656 L 44.542969 19.097656 L 44.542969 54.664062 L 8.972656 54.664062 Z M 8.972656 19.097656 " fill-opacity="1" fill-rule="nonzero"/></g></g><g clip-path="url(#4be0669589)"><g clip-path="url(#a474a8eb98)"><path fill="#004338" d="M 1.90625 19.097656 L 36.574219 19.097656 L 36.574219 54.710938 L 1.90625 54.710938 Z M 1.90625 19.097656 " fill-opacity="1" fill-rule="nonzero"/></g></g><g clip-path="url(#1fd205d809)"><g clip-path="url(#d17494acaf)"><path fill="#d5d52c" d="M 79.804688 50.835938 L 44.234375 50.835938 L 44.234375 15.265625 L 79.804688 15.265625 Z M 79.804688 50.835938 " fill-opacity="1" fill-rule="nonzero"/></g></g><g clip-path="url(#847a8bfdd1)"><g clip-path="url(#4d340837bc)"><path fill="#d5d52c" d="M 90.355469 50.839844 L 53.382812 50.839844 L 53.382812 15.253906 L 90.355469 15.253906 Z M 90.355469 50.839844 " fill-opacity="1" fill-rule="nonzero"/></g></g><g fill="#ffffff" fill-opacity="1"><g transform="translate(8.973688, 44.803808)"><g><path d="M 10.1875 -4.984375 L 10.1875 -2.328125 L 0.890625 -6.0625 L 0.890625 -8.53125 L 10.1875 -12.265625 L 10.1875 -9.625 L 4.34375 -7.40625 L 4.34375 -7.1875 Z M 10.1875 -4.984375 "/></g></g></g><g fill="#ffffff" fill-opacity="1"><g transform="translate(20.341638, 44.803808)"><g><path d="M 4.9375 -6.625 L 4.9375 -2.5 L 12.125 -2.5 L 12.125 0 L 1.953125 0 L 1.953125 -15.0625 L 11.96875 -15.0625 L 11.96875 -12.578125 L 4.9375 -12.578125 L 4.9375 -9.046875 L 11.078125 -9.046875 L 11.078125 -6.625 Z M 4.9375 -6.625 "/></g></g></g><g fill="#ffffff" fill-opacity="1"><g transform="translate(54.194048, 40.681775)"><g><path d="M 5.625 0.21875 C 4.71875 0.21875 3.921875 0 3.234375 -0.4375 C 2.546875 -0.875 2.003906 -1.53125 1.609375 -2.40625 C 1.210938 -3.289062 1.015625 -4.378906 1.015625 -5.671875 C 1.015625 -6.972656 1.210938 -8.066406 1.609375 -8.953125 C 2.015625 -9.835938 2.570312 -10.492188 3.28125 -10.921875 C 4 -11.359375 4.828125 -11.578125 5.765625 -11.578125 C 6.472656 -11.578125 7.082031 -11.457031 7.59375 -11.21875 C 8.113281 -10.976562 8.554688 -10.597656 8.921875 -10.078125 L 9.125 -10.125 L 9.125 -15.9375 L 11.984375 -15.9375 L 11.984375 0 L 9.125 0 L 9.125 -1.46875 L 8.921875 -1.515625 C 8.597656 -0.984375 8.160156 -0.5625 7.609375 -0.25 C 7.066406 0.0625 6.40625 0.21875 5.625 0.21875 Z M 6.546875 -2.203125 C 7.347656 -2.203125 7.984375 -2.488281 8.453125 -3.0625 C 8.921875 -3.632812 9.15625 -4.503906 9.15625 -5.671875 C 9.15625 -6.847656 8.921875 -7.722656 8.453125 -8.296875 C 7.984375 -8.867188 7.347656 -9.15625 6.546875 -9.15625 C 5.703125 -9.15625 5.054688 -8.875 4.609375 -8.3125 C 4.171875 -7.757812 3.953125 -6.878906 3.953125 -5.671875 C 3.953125 -4.484375 4.171875 -3.609375 4.609375 -3.046875 C 5.054688 -2.484375 5.703125 -2.203125 6.546875 -2.203125 Z M 6.546875 -2.203125 "/></g></g></g><g fill="#ffffff" fill-opacity="1"><g transform="translate(67.819095, 40.681775)"><g><path d="M 2.765625 2.15625 L 0.0625 2.15625 L 5.671875 -15.9375 L 8.40625 -15.9375 Z M 2.765625 2.15625 "/></g></g></g><g fill="#ffffff" fill-opacity="1"><g transform="translate(76.672286, 40.681775)"><g><path d="M 10.453125 -6.0625 L 1.15625 -2.328125 L 1.15625 -4.984375 L 7.015625 -7.1875 L 7.015625 -7.40625 L 1.15625 -9.625 L 1.15625 -12.265625 L 10.453125 -8.53125 Z M 10.453125 -6.0625 "/></g></g></g></svg>